# Created by Kenney (www.kenney.nl)

mtllib fireball.mtl

v 4 8 0.5
v 4 8 -0.5
v 0 8 0.5
v 0 8 -0.5
v 0 9 -0.5
v 0 9 0.5
v 4 9 -0.5
v 4 9 0.5
v 6 7 0.5
v 6 7 -0.5
v 4 7 0.5
v 4 7 -0.5
v 6 8 -0.5
v 6 8 0.5
v 0 7 0.5
v 0 7 -0.5
v -2 7 0.5
v -2 7 -0.5
v -2 8 -0.5
v -2 8 0.5
v 7 5 0.5
v 7 5 -0.5
v 6 5 0.5
v 6 5 -0.5
v 7 7 -0.5
v 7 7 0.5
v -2 5 0.5
v -2 5 -0.5
v -3 5 0.5
v -3 5 -0.5
v -3 7 -0.5
v -3 7 0.5
v 8 1 0.5
v 8 1 -0.5
v 7 1 0.5
v 7 1 -0.5
v 8 5 -0.5
v 8 5 0.5
v -3 1 0.5
v -3 1 -0.5
v -4 1 0.5
v -4 1 -0.5
v -4 5 -0.5
v -4 5 0.5
v -2 -1 0.5
v -2 -1 -0.5
v -3 -1 0.5
v -3 -1 -0.5
v -3 3 -0.5
v -3 3 0.5
v -2 3 -0.5
v -2 3 0.5
v 7 -1 0.5
v 7 -1 -0.5
v 6 -1 0.5
v 6 -1 -0.5
v 6 1 -0.5
v 6 1 0.5
v 0 -2 0.5
v 0 -2 -0.5
v -2 -2 0.5
v -2 -2 -0.5
v -2 0 -0.5
v -2 0 0.5
v 0 0 -0.5
v 0 0 0.5
v 6 -2 0.5
v 6 -2 -0.5
v 0 -1 -0.5
v 0 -1 0.5
v 4 -3 0.5
v 4 -3 -0.5
v 0 -3 0.5
v 0 -3 -0.5
v 4 -2 -0.5
v 4 -2 0.5
v 4 7 1
v 4 7 -1
v 0 7 1
v 0 7 -1
v 0 8 -1
v 0 8 1
v 4 8 -1
v 4 8 1
v 6 4 1
v 6 4 -1
v 5 4 1
v 5 4 -1
v 5 7 -1
v 5 7 1
v 6 7 -1
v 6 7 1
v 5 6 1
v 5 6 -1
v 4 6 1
v 4 6 -1
v 0 6 1
v 0 6 -1
v -2 6 1
v -2 6 -1
v -2 7 -1
v -2 7 1
v -1 5 1
v -1 5 -1
v -2 5 1
v -2 5 -1
v -1 6 -1
v -1 6 1
v 7 1 1
v 7 1 -1
v 6 1 1
v 6 1 -1
v 6 5 -1
v 6 5 1
v 7 5 -1
v 7 5 1
v 6 -1 1
v 6 -1 -1
v 5 -1 1
v 5 -1 -1
v 5 1 -1
v 5 1 1
v -1 0 1
v -1 0 -1
v -2 0 1
v -2 0 -1
v -2 1 -1
v -2 1 1
v -1 1 -1
v -1 1 1
v 4 -1 1
v 4 -1 -1
v 4 0 -1
v 4 0 1
v 5 0 -1
v 5 0 1
v 4 4 1.5
v 4 4 -1.5
v 3 4 1.5
v 3 4 -1.5
v 3 7 -1.5
v 3 7 1.5
v 4 7 -1.5
v 4 7 1.5
v 3 6 1.5
v 3 6 -1.5
v 0 6 1.5
v 0 6 -1.5
v 0 7 -1.5
v 0 7 1.5
v 5 0 1.5
v 5 0 -1.5
v 4 0 1.5
v 4 0 -1.5
v 4 6 -1.5
v 4 6 1.5
v 5 6 -1.5
v 5 6 1.5
v 3 5 1.5
v 3 5 -1.5
v -1 5 1.5
v -1 5 -1.5
v -1 6 -1.5
v -1 6 1.5
v 0 0 1.5
v 0 0 -1.5
v -1 0 1.5
v -1 0 -1.5
v 0 5 -1.5
v 0 5 1.5
v -1 4 1.5
v -1 4 -1.5
v -3 4 1.5
v -3 4 -1.5
v -3 5 -1.5
v -3 5 1.5
v 6 1 1.5
v 6 1 -1.5
v 5 1 1.5
v 5 1 -1.5
v 5 4 -1.5
v 5 4 1.5
v 6 4 -1.5
v 6 4 1.5
v -1 1 1.5
v -1 1 -1.5
v -2 1 1.5
v -2 1 -1.5
v -2 4 -1.5
v -2 4 1.5
v -2 3 1.5
v -2 3 -1.5
v -3 3 1.5
v -3 3 -1.5
v 1 -1 1.5
v 1 -1 -1.5
v 0 -1 1.5
v 0 -1 -1.5
v 0 2 -1.5
v 0 2 1.5
v 1 2 -1.5
v 1 2 1.5
v 4 -1 1.5
v 4 -1 -1.5
v 1 1 -1.5
v 1 1 1.5
v 4 1 -1.5
v 4 1 1.5
v 3 4 2
v 3 4 -2
v 0 4 2
v 0 4 -2
v 0 5 -2
v 0 5 2
v 3 5 -2
v 3 5 2
v 4 1 2
v 4 1 -2
v 3 1 2
v 3 1 -2
v 4 4 -2
v 4 4 2
v 1 2 2
v 1 2 -2
v 0 2 2
v 0 2 -2
v 1 4 -2
v 1 4 2
v 2 1 2
v 2 1 -2
v 1 1 2
v 1 1 -2
v 1 3 -2
v 1 3 2
v 2 3 -2
v 2 3 2
v 2 2 -2
v 2 2 2
v 3 2 -2
v 3 2 2
v 2 4 -2
v 2 4 2

vn 0 -1 0
vn -1 0 0
vn 0 0 -1
vn 0 0 1
vn 1 0 0
vn 0 1 0

vt 0 0

usemtl color17

f 3/1/1 2/1/1 1/1/1
f 2/1/1 3/1/1 4/1/1
f 3/1/2 5/1/2 4/1/2
f 5/1/2 3/1/2 6/1/2
f 5/1/3 2/1/3 4/1/3
f 2/1/3 5/1/3 7/1/3
f 8/1/4 3/1/4 1/1/4
f 3/1/4 8/1/4 6/1/4
f 8/1/5 2/1/5 7/1/5
f 2/1/5 8/1/5 1/1/5
f 5/1/6 8/1/6 7/1/6
f 8/1/6 5/1/6 6/1/6
f 11/1/1 10/1/1 9/1/1
f 10/1/1 11/1/1 12/1/1
f 11/1/2 2/1/2 12/1/2
f 2/1/2 11/1/2 1/1/2
f 2/1/3 10/1/3 12/1/3
f 10/1/3 2/1/3 13/1/3
f 14/1/4 11/1/4 9/1/4
f 11/1/4 14/1/4 1/1/4
f 14/1/5 10/1/5 13/1/5
f 10/1/5 14/1/5 9/1/5
f 2/1/6 14/1/6 13/1/6
f 14/1/6 2/1/6 1/1/6
f 17/1/1 16/1/1 15/1/1
f 16/1/1 17/1/1 18/1/1
f 17/1/2 19/1/2 18/1/2
f 19/1/2 17/1/2 20/1/2
f 19/1/3 16/1/3 18/1/3
f 16/1/3 19/1/3 4/1/3
f 3/1/4 17/1/4 15/1/4
f 17/1/4 3/1/4 20/1/4
f 3/1/5 16/1/5 4/1/5
f 16/1/5 3/1/5 15/1/5
f 19/1/6 3/1/6 4/1/6
f 3/1/6 19/1/6 20/1/6
f 23/1/1 22/1/1 21/1/1
f 22/1/1 23/1/1 24/1/1
f 23/1/2 10/1/2 24/1/2
f 10/1/2 23/1/2 9/1/2
f 10/1/3 22/1/3 24/1/3
f 22/1/3 10/1/3 25/1/3
f 26/1/4 23/1/4 21/1/4
f 23/1/4 26/1/4 9/1/4
f 26/1/5 22/1/5 25/1/5
f 22/1/5 26/1/5 21/1/5
f 10/1/6 26/1/6 25/1/6
f 26/1/6 10/1/6 9/1/6
f 29/1/1 28/1/1 27/1/1
f 28/1/1 29/1/1 30/1/1
f 29/1/2 31/1/2 30/1/2
f 31/1/2 29/1/2 32/1/2
f 31/1/3 28/1/3 30/1/3
f 28/1/3 31/1/3 18/1/3
f 17/1/4 29/1/4 27/1/4
f 29/1/4 17/1/4 32/1/4
f 17/1/5 28/1/5 18/1/5
f 28/1/5 17/1/5 27/1/5
f 31/1/6 17/1/6 18/1/6
f 17/1/6 31/1/6 32/1/6
f 35/1/1 34/1/1 33/1/1
f 34/1/1 35/1/1 36/1/1
f 35/1/2 22/1/2 36/1/2
f 22/1/2 35/1/2 21/1/2
f 22/1/3 34/1/3 36/1/3
f 34/1/3 22/1/3 37/1/3
f 38/1/4 35/1/4 33/1/4
f 35/1/4 38/1/4 21/1/4
f 38/1/5 34/1/5 37/1/5
f 34/1/5 38/1/5 33/1/5
f 22/1/6 38/1/6 37/1/6
f 38/1/6 22/1/6 21/1/6
f 41/1/1 40/1/1 39/1/1
f 40/1/1 41/1/1 42/1/1
f 41/1/2 43/1/2 42/1/2
f 43/1/2 41/1/2 44/1/2
f 43/1/3 40/1/3 42/1/3
f 40/1/3 43/1/3 30/1/3
f 29/1/4 41/1/4 39/1/4
f 41/1/4 29/1/4 44/1/4
f 29/1/5 40/1/5 30/1/5
f 40/1/5 29/1/5 39/1/5
f 43/1/6 29/1/6 30/1/6
f 29/1/6 43/1/6 44/1/6
f 47/1/1 46/1/1 45/1/1
f 46/1/1 47/1/1 48/1/1
f 47/1/2 49/1/2 48/1/2
f 49/1/2 47/1/2 50/1/2
f 49/1/3 46/1/3 48/1/3
f 46/1/3 49/1/3 51/1/3
f 52/1/4 47/1/4 45/1/4
f 47/1/4 52/1/4 50/1/4
f 52/1/5 46/1/5 51/1/5
f 46/1/5 52/1/5 45/1/5
f 49/1/6 52/1/6 51/1/6
f 52/1/6 49/1/6 50/1/6
f 55/1/1 54/1/1 53/1/1
f 54/1/1 55/1/1 56/1/1
f 55/1/2 57/1/2 56/1/2
f 57/1/2 55/1/2 58/1/2
f 57/1/3 54/1/3 56/1/3
f 54/1/3 57/1/3 36/1/3
f 35/1/4 55/1/4 53/1/4
f 55/1/4 35/1/4 58/1/4
f 35/1/5 54/1/5 36/1/5
f 54/1/5 35/1/5 53/1/5
f 57/1/6 35/1/6 36/1/6
f 35/1/6 57/1/6 58/1/6
f 61/1/1 60/1/1 59/1/1
f 60/1/1 61/1/1 62/1/1
f 61/1/2 63/1/2 62/1/2
f 63/1/2 61/1/2 64/1/2
f 63/1/3 60/1/3 62/1/3
f 60/1/3 63/1/3 65/1/3
f 66/1/4 61/1/4 59/1/4
f 61/1/4 66/1/4 64/1/4
f 66/1/5 60/1/5 65/1/5
f 60/1/5 66/1/5 59/1/5
f 63/1/6 66/1/6 65/1/6
f 66/1/6 63/1/6 64/1/6
f 59/1/1 68/1/1 67/1/1
f 68/1/1 59/1/1 60/1/1
f 59/1/2 69/1/2 60/1/2
f 69/1/2 59/1/2 70/1/2
f 69/1/3 68/1/3 60/1/3
f 68/1/3 69/1/3 56/1/3
f 55/1/4 59/1/4 67/1/4
f 59/1/4 55/1/4 70/1/4
f 55/1/5 68/1/5 56/1/5
f 68/1/5 55/1/5 67/1/5
f 69/1/6 55/1/6 56/1/6
f 55/1/6 69/1/6 70/1/6
f 73/1/1 72/1/1 71/1/1
f 72/1/1 73/1/1 74/1/1
f 73/1/2 60/1/2 74/1/2
f 60/1/2 73/1/2 59/1/2
f 60/1/3 72/1/3 74/1/3
f 72/1/3 60/1/3 75/1/3
f 76/1/4 73/1/4 71/1/4
f 73/1/4 76/1/4 59/1/4
f 76/1/5 72/1/5 75/1/5
f 72/1/5 76/1/5 71/1/5
f 60/1/6 76/1/6 75/1/6
f 76/1/6 60/1/6 59/1/6

usemtl color18

f 79/1/1 78/1/1 77/1/1
f 78/1/1 79/1/1 80/1/1
f 79/1/2 81/1/2 80/1/2
f 81/1/2 79/1/2 82/1/2
f 81/1/3 78/1/3 80/1/3
f 78/1/3 81/1/3 83/1/3
f 84/1/4 79/1/4 77/1/4
f 79/1/4 84/1/4 82/1/4
f 84/1/5 78/1/5 83/1/5
f 78/1/5 84/1/5 77/1/5
f 81/1/6 84/1/6 83/1/6
f 84/1/6 81/1/6 82/1/6
f 87/1/1 86/1/1 85/1/1
f 86/1/1 87/1/1 88/1/1
f 87/1/2 89/1/2 88/1/2
f 89/1/2 87/1/2 90/1/2
f 89/1/3 86/1/3 88/1/3
f 86/1/3 89/1/3 91/1/3
f 92/1/4 87/1/4 85/1/4
f 87/1/4 92/1/4 90/1/4
f 92/1/5 86/1/5 91/1/5
f 86/1/5 92/1/5 85/1/5
f 89/1/6 92/1/6 91/1/6
f 92/1/6 89/1/6 90/1/6
f 95/1/1 94/1/1 93/1/1
f 94/1/1 95/1/1 96/1/1
f 95/1/2 78/1/2 96/1/2
f 78/1/2 95/1/2 77/1/2
f 78/1/3 94/1/3 96/1/3
f 94/1/3 78/1/3 89/1/3
f 90/1/4 95/1/4 93/1/4
f 95/1/4 90/1/4 77/1/4
f 90/1/5 94/1/5 89/1/5
f 94/1/5 90/1/5 93/1/5
f 78/1/6 90/1/6 89/1/6
f 90/1/6 78/1/6 77/1/6
f 99/1/1 98/1/1 97/1/1
f 98/1/1 99/1/1 100/1/1
f 99/1/2 101/1/2 100/1/2
f 101/1/2 99/1/2 102/1/2
f 101/1/3 98/1/3 100/1/3
f 98/1/3 101/1/3 80/1/3
f 79/1/4 99/1/4 97/1/4
f 99/1/4 79/1/4 102/1/4
f 79/1/5 98/1/5 80/1/5
f 98/1/5 79/1/5 97/1/5
f 101/1/6 79/1/6 80/1/6
f 79/1/6 101/1/6 102/1/6
f 105/1/1 104/1/1 103/1/1
f 104/1/1 105/1/1 106/1/1
f 105/1/2 100/1/2 106/1/2
f 100/1/2 105/1/2 99/1/2
f 100/1/3 104/1/3 106/1/3
f 104/1/3 100/1/3 107/1/3
f 108/1/4 105/1/4 103/1/4
f 105/1/4 108/1/4 99/1/4
f 108/1/5 104/1/5 107/1/5
f 104/1/5 108/1/5 103/1/5
f 100/1/6 108/1/6 107/1/6
f 108/1/6 100/1/6 99/1/6
f 111/1/1 110/1/1 109/1/1
f 110/1/1 111/1/1 112/1/1
f 111/1/2 113/1/2 112/1/2
f 113/1/2 111/1/2 114/1/2
f 113/1/3 110/1/3 112/1/3
f 110/1/3 113/1/3 115/1/3
f 116/1/4 111/1/4 109/1/4
f 111/1/4 116/1/4 114/1/4
f 116/1/5 110/1/5 115/1/5
f 110/1/5 116/1/5 109/1/5
f 113/1/6 116/1/6 115/1/6
f 116/1/6 113/1/6 114/1/6
f 119/1/1 118/1/1 117/1/1
f 118/1/1 119/1/1 120/1/1
f 119/1/2 121/1/2 120/1/2
f 121/1/2 119/1/2 122/1/2
f 121/1/3 118/1/3 120/1/3
f 118/1/3 121/1/3 112/1/3
f 111/1/4 119/1/4 117/1/4
f 119/1/4 111/1/4 122/1/4
f 111/1/5 118/1/5 112/1/5
f 118/1/5 111/1/5 117/1/5
f 121/1/6 111/1/6 112/1/6
f 111/1/6 121/1/6 122/1/6
f 125/1/1 124/1/1 123/1/1
f 124/1/1 125/1/1 126/1/1
f 125/1/2 127/1/2 126/1/2
f 127/1/2 125/1/2 128/1/2
f 127/1/3 124/1/3 126/1/3
f 124/1/3 127/1/3 129/1/3
f 130/1/4 125/1/4 123/1/4
f 125/1/4 130/1/4 128/1/4
f 130/1/5 124/1/5 129/1/5
f 124/1/5 130/1/5 123/1/5
f 127/1/6 130/1/6 129/1/6
f 130/1/6 127/1/6 128/1/6
f 131/1/1 120/1/1 119/1/1
f 120/1/1 131/1/1 132/1/1
f 131/1/2 133/1/2 132/1/2
f 133/1/2 131/1/2 134/1/2
f 133/1/3 120/1/3 132/1/3
f 120/1/3 133/1/3 135/1/3
f 136/1/4 131/1/4 119/1/4
f 131/1/4 136/1/4 134/1/4
f 136/1/5 120/1/5 135/1/5
f 120/1/5 136/1/5 119/1/5
f 133/1/6 136/1/6 135/1/6
f 136/1/6 133/1/6 134/1/6
f 95/1/1 94/1/1 93/1/1
f 94/1/1 95/1/1 96/1/1
f 95/1/2 78/1/2 96/1/2
f 78/1/2 95/1/2 77/1/2
f 78/1/3 94/1/3 96/1/3
f 94/1/3 78/1/3 89/1/3
f 90/1/4 95/1/4 93/1/4
f 95/1/4 90/1/4 77/1/4
f 90/1/5 94/1/5 89/1/5
f 94/1/5 90/1/5 93/1/5
f 78/1/6 90/1/6 89/1/6
f 90/1/6 78/1/6 77/1/6

usemtl color19

f 139/1/1 138/1/1 137/1/1
f 138/1/1 139/1/1 140/1/1
f 139/1/2 141/1/2 140/1/2
f 141/1/2 139/1/2 142/1/2
f 141/1/3 138/1/3 140/1/3
f 138/1/3 141/1/3 143/1/3
f 144/1/4 139/1/4 137/1/4
f 139/1/4 144/1/4 142/1/4
f 144/1/5 138/1/5 143/1/5
f 138/1/5 144/1/5 137/1/5
f 141/1/6 144/1/6 143/1/6
f 144/1/6 141/1/6 142/1/6
f 147/1/1 146/1/1 145/1/1
f 146/1/1 147/1/1 148/1/1
f 147/1/2 149/1/2 148/1/2
f 149/1/2 147/1/2 150/1/2
f 149/1/3 146/1/3 148/1/3
f 146/1/3 149/1/3 141/1/3
f 142/1/4 147/1/4 145/1/4
f 147/1/4 142/1/4 150/1/4
f 142/1/5 146/1/5 141/1/5
f 146/1/5 142/1/5 145/1/5
f 149/1/6 142/1/6 141/1/6
f 142/1/6 149/1/6 150/1/6
f 153/1/1 152/1/1 151/1/1
f 152/1/1 153/1/1 154/1/1
f 153/1/2 155/1/2 154/1/2
f 155/1/2 153/1/2 156/1/2
f 155/1/3 152/1/3 154/1/3
f 152/1/3 155/1/3 157/1/3
f 158/1/4 153/1/4 151/1/4
f 153/1/4 158/1/4 156/1/4
f 158/1/5 152/1/5 157/1/5
f 152/1/5 158/1/5 151/1/5
f 155/1/6 158/1/6 157/1/6
f 158/1/6 155/1/6 156/1/6
f 161/1/1 160/1/1 159/1/1
f 160/1/1 161/1/1 162/1/1
f 161/1/2 163/1/2 162/1/2
f 163/1/2 161/1/2 164/1/2
f 163/1/3 160/1/3 162/1/3
f 160/1/3 163/1/3 146/1/3
f 145/1/4 161/1/4 159/1/4
f 161/1/4 145/1/4 164/1/4
f 145/1/5 160/1/5 146/1/5
f 160/1/5 145/1/5 159/1/5
f 163/1/6 145/1/6 146/1/6
f 145/1/6 163/1/6 164/1/6
f 167/1/1 166/1/1 165/1/1
f 166/1/1 167/1/1 168/1/1
f 167/1/2 162/1/2 168/1/2
f 162/1/2 167/1/2 161/1/2
f 162/1/3 166/1/3 168/1/3
f 166/1/3 162/1/3 169/1/3
f 170/1/4 167/1/4 165/1/4
f 167/1/4 170/1/4 161/1/4
f 170/1/5 166/1/5 169/1/5
f 166/1/5 170/1/5 165/1/5
f 162/1/6 170/1/6 169/1/6
f 170/1/6 162/1/6 161/1/6
f 173/1/1 172/1/1 171/1/1
f 172/1/1 173/1/1 174/1/1
f 173/1/2 175/1/2 174/1/2
f 175/1/2 173/1/2 176/1/2
f 175/1/3 172/1/3 174/1/3
f 172/1/3 175/1/3 162/1/3
f 161/1/4 173/1/4 171/1/4
f 173/1/4 161/1/4 176/1/4
f 161/1/5 172/1/5 162/1/5
f 172/1/5 161/1/5 171/1/5
f 175/1/6 161/1/6 162/1/6
f 161/1/6 175/1/6 176/1/6
f 179/1/1 178/1/1 177/1/1
f 178/1/1 179/1/1 180/1/1
f 179/1/2 181/1/2 180/1/2
f 181/1/2 179/1/2 182/1/2
f 181/1/3 178/1/3 180/1/3
f 178/1/3 181/1/3 183/1/3
f 184/1/4 179/1/4 177/1/4
f 179/1/4 184/1/4 182/1/4
f 184/1/5 178/1/5 183/1/5
f 178/1/5 184/1/5 177/1/5
f 181/1/6 184/1/6 183/1/6
f 184/1/6 181/1/6 182/1/6
f 187/1/1 186/1/1 185/1/1
f 186/1/1 187/1/1 188/1/1
f 187/1/2 189/1/2 188/1/2
f 189/1/2 187/1/2 190/1/2
f 189/1/3 186/1/3 188/1/3
f 186/1/3 189/1/3 172/1/3
f 171/1/4 187/1/4 185/1/4
f 187/1/4 171/1/4 190/1/4
f 171/1/5 186/1/5 172/1/5
f 186/1/5 171/1/5 185/1/5
f 189/1/6 171/1/6 172/1/6
f 171/1/6 189/1/6 190/1/6
f 193/1/1 192/1/1 191/1/1
f 192/1/1 193/1/1 194/1/1
f 193/1/2 174/1/2 194/1/2
f 174/1/2 193/1/2 173/1/2
f 174/1/3 192/1/3 194/1/3
f 192/1/3 174/1/3 189/1/3
f 190/1/4 193/1/4 191/1/4
f 193/1/4 190/1/4 173/1/4
f 190/1/5 192/1/5 189/1/5
f 192/1/5 190/1/5 191/1/5
f 174/1/6 190/1/6 189/1/6
f 190/1/6 174/1/6 173/1/6
f 197/1/1 196/1/1 195/1/1
f 196/1/1 197/1/1 198/1/1
f 197/1/2 199/1/2 198/1/2
f 199/1/2 197/1/2 200/1/2
f 199/1/3 196/1/3 198/1/3
f 196/1/3 199/1/3 201/1/3
f 202/1/4 197/1/4 195/1/4
f 197/1/4 202/1/4 200/1/4
f 202/1/5 196/1/5 201/1/5
f 196/1/5 202/1/5 195/1/5
f 199/1/6 202/1/6 201/1/6
f 202/1/6 199/1/6 200/1/6
f 195/1/1 204/1/1 203/1/1
f 204/1/1 195/1/1 196/1/1
f 195/1/2 205/1/2 196/1/2
f 205/1/2 195/1/2 206/1/2
f 205/1/3 204/1/3 196/1/3
f 204/1/3 205/1/3 207/1/3
f 208/1/4 195/1/4 203/1/4
f 195/1/4 208/1/4 206/1/4
f 208/1/5 204/1/5 207/1/5
f 204/1/5 208/1/5 203/1/5
f 205/1/6 208/1/6 207/1/6
f 208/1/6 205/1/6 206/1/6
f 147/1/1 146/1/1 145/1/1
f 146/1/1 147/1/1 148/1/1
f 147/1/2 149/1/2 148/1/2
f 149/1/2 147/1/2 150/1/2
f 149/1/3 146/1/3 148/1/3
f 146/1/3 149/1/3 141/1/3
f 142/1/4 147/1/4 145/1/4
f 147/1/4 142/1/4 150/1/4
f 142/1/5 146/1/5 141/1/5
f 146/1/5 142/1/5 145/1/5
f 149/1/6 142/1/6 141/1/6
f 142/1/6 149/1/6 150/1/6
f 173/1/1 172/1/1 171/1/1
f 172/1/1 173/1/1 174/1/1
f 173/1/2 175/1/2 174/1/2
f 175/1/2 173/1/2 176/1/2
f 175/1/3 172/1/3 174/1/3
f 172/1/3 175/1/3 162/1/3
f 161/1/4 173/1/4 171/1/4
f 173/1/4 161/1/4 176/1/4
f 161/1/5 172/1/5 162/1/5
f 172/1/5 161/1/5 171/1/5
f 175/1/6 161/1/6 162/1/6
f 161/1/6 175/1/6 176/1/6
f 193/1/1 192/1/1 191/1/1
f 192/1/1 193/1/1 194/1/1
f 193/1/2 174/1/2 194/1/2
f 174/1/2 193/1/2 173/1/2
f 174/1/3 192/1/3 194/1/3
f 192/1/3 174/1/3 189/1/3
f 190/1/4 193/1/4 191/1/4
f 193/1/4 190/1/4 173/1/4
f 190/1/5 192/1/5 189/1/5
f 192/1/5 190/1/5 191/1/5
f 174/1/6 190/1/6 189/1/6
f 190/1/6 174/1/6 173/1/6

usemtl color20

f 211/1/1 210/1/1 209/1/1
f 210/1/1 211/1/1 212/1/1
f 211/1/2 213/1/2 212/1/2
f 213/1/2 211/1/2 214/1/2
f 213/1/3 210/1/3 212/1/3
f 210/1/3 213/1/3 215/1/3
f 216/1/4 211/1/4 209/1/4
f 211/1/4 216/1/4 214/1/4
f 216/1/5 210/1/5 215/1/5
f 210/1/5 216/1/5 209/1/5
f 213/1/6 216/1/6 215/1/6
f 216/1/6 213/1/6 214/1/6
f 219/1/1 218/1/1 217/1/1
f 218/1/1 219/1/1 220/1/1
f 219/1/2 210/1/2 220/1/2
f 210/1/2 219/1/2 209/1/2
f 210/1/3 218/1/3 220/1/3
f 218/1/3 210/1/3 221/1/3
f 222/1/4 219/1/4 217/1/4
f 219/1/4 222/1/4 209/1/4
f 222/1/5 218/1/5 221/1/5
f 218/1/5 222/1/5 217/1/5
f 210/1/6 222/1/6 221/1/6
f 222/1/6 210/1/6 209/1/6
f 225/1/1 224/1/1 223/1/1
f 224/1/1 225/1/1 226/1/1
f 225/1/2 212/1/2 226/1/2
f 212/1/2 225/1/2 211/1/2
f 212/1/3 224/1/3 226/1/3
f 224/1/3 212/1/3 227/1/3
f 228/1/4 225/1/4 223/1/4
f 225/1/4 228/1/4 211/1/4
f 228/1/5 224/1/5 227/1/5
f 224/1/5 228/1/5 223/1/5
f 212/1/6 228/1/6 227/1/6
f 228/1/6 212/1/6 211/1/6
f 231/1/1 230/1/1 229/1/1
f 230/1/1 231/1/1 232/1/1
f 231/1/2 233/1/2 232/1/2
f 233/1/2 231/1/2 234/1/2
f 233/1/3 230/1/3 232/1/3
f 230/1/3 233/1/3 235/1/3
f 236/1/4 231/1/4 229/1/4
f 231/1/4 236/1/4 234/1/4
f 236/1/5 230/1/5 235/1/5
f 230/1/5 236/1/5 229/1/5
f 233/1/6 236/1/6 235/1/6
f 236/1/6 233/1/6 234/1/6
f 229/1/1 220/1/1 219/1/1
f 220/1/1 229/1/1 230/1/1
f 229/1/2 237/1/2 230/1/2
f 237/1/2 229/1/2 238/1/2
f 237/1/3 220/1/3 230/1/3
f 220/1/3 237/1/3 239/1/3
f 240/1/4 229/1/4 219/1/4
f 229/1/4 240/1/4 238/1/4
f 240/1/5 220/1/5 239/1/5
f 220/1/5 240/1/5 219/1/5
f 237/1/6 240/1/6 239/1/6
f 240/1/6 237/1/6 238/1/6

usemtl color21

f 238/1/1 239/1/1 240/1/1
f 239/1/1 238/1/1 237/1/1
f 238/1/2 241/1/2 237/1/2
f 241/1/2 238/1/2 242/1/2
f 241/1/3 239/1/3 237/1/3
f 239/1/3 241/1/3 210/1/3
f 209/1/4 238/1/4 240/1/4
f 238/1/4 209/1/4 242/1/4
f 209/1/5 239/1/5 210/1/5
f 239/1/5 209/1/5 240/1/5
f 241/1/6 209/1/6 210/1/6
f 209/1/6 241/1/6 242/1/6
f 234/1/1 235/1/1 236/1/1
f 235/1/1 234/1/1 233/1/1
f 234/1/2 227/1/2 233/1/2
f 227/1/2 234/1/2 228/1/2
f 227/1/3 235/1/3 233/1/3
f 235/1/3 227/1/3 241/1/3
f 242/1/4 234/1/4 236/1/4
f 234/1/4 242/1/4 228/1/4
f 242/1/5 235/1/5 241/1/5
f 235/1/5 242/1/5 236/1/5
f 227/1/6 242/1/6 241/1/6
f 242/1/6 227/1/6 228/1/6
f 234/1/1 235/1/1 236/1/1
f 235/1/1 234/1/1 233/1/1
f 234/1/2 227/1/2 233/1/2
f 227/1/2 234/1/2 228/1/2
f 227/1/3 235/1/3 233/1/3
f 235/1/3 227/1/3 241/1/3
f 242/1/4 234/1/4 236/1/4
f 234/1/4 242/1/4 228/1/4
f 242/1/5 235/1/5 241/1/5
f 235/1/5 242/1/5 236/1/5
f 227/1/6 242/1/6 241/1/6
f 242/1/6 227/1/6 228/1/6

