# Created by Kenney (www.kenney.nl)

mtllib nostalig_staff_icon.mtl

v -2 7 0.5
v -2 7 -0.5
v -3 7 0.5
v -3 7 -0.5
v -3 9 -0.5
v -3 9 0.5
v -2 9 -0.5
v -2 9 0.5
v -1 4 0.5
v -1 4 -0.5
v -2 4 0.5
v -2 4 -0.5
v -2 8 -0.5
v -2 8 0.5
v -1 8 -0.5
v -1 8 0.5
v -5 6 1
v -5 6 -1
v -6 6 1
v -6 6 -1
v -6 7 -1
v -6 7 1
v -5 7 -1
v -5 7 1
v -3 5 1
v -3 5 -1
v -5 5 1
v -5 5 -1
v -3 6 -1
v -3 6 1
v 0 2 0.5
v 0 2 -0.5
v -1 2 0.5
v -1 2 -0.5
v -1 5 -0.5
v -1 5 0.5
v 0 5 -0.5
v 0 5 0.5
v -3 4 0.5
v -3 4 -0.5
v -3 5 -0.5
v -3 5 0.5
v -2 5 -0.5
v -2 5 0.5
v -4 4 1
v -4 4 -1
v -5 4 1
v -5 4 -1
v -4 5 -1
v -4 5 1
v -3 1 0.5
v -3 1 -0.5
v -4 1 0.5
v -4 1 -0.5
v -4 4 -0.5
v -4 4 0.5
v -6 2 0.5
v -6 2 -0.5
v -7 2 0.5
v -7 2 -0.5
v -7 4 -0.5
v -7 4 0.5
v -6 4 -0.5
v -6 4 0.5
v -7 3 0.5
v -7 3 -0.5
v -8 3 0.5
v -8 3 -0.5
v -8 4 -0.5
v -8 4 0.5
v 1 1 0.5
v 1 1 -0.5
v 0 1 0.5
v 0 1 -0.5
v 0 3 -0.5
v 0 3 0.5
v 1 3 -0.5
v 1 3 0.5
v -4 2 0.5
v -4 2 -0.5
v -6 3 -0.5
v -6 3 0.5
v -4 3 -0.5
v -4 3 0.5
v -1 0 0.5
v -1 0 -0.5
v -2 0 0.5
v -2 0 -0.5
v -2 2 -0.5
v -2 2 0.5
v -2 1 0.5
v -2 1 -0.5
v -3 2 -0.5
v -3 2 0.5
v 2 0 0.5
v 2 0 -0.5
v 1 0 0.5
v 1 0 -0.5
v 2 1 -0.5
v 2 1 0.5
v 0 0 0.5
v 0 0 -0.5
v -1 1 -0.5
v -1 1 0.5
v 3 -1 0.5
v 3 -1 -0.5
v 2 -1 0.5
v 2 -1 -0.5
v 3 0 -0.5
v 3 0 0.5
v 1 -1 0.5
v 1 -1 -0.5
v 0 -1 0.5
v 0 -1 -0.5
v 4 -2 0.5
v 4 -2 -0.5
v 3 -2 0.5
v 3 -2 -0.5
v 4 -1 -0.5
v 4 -1 0.5
v 2 -2 0.5
v 2 -2 -0.5
v 1 -2 0.5
v 1 -2 -0.5
v 5 -3 0.5
v 5 -3 -0.5
v 4 -3 0.5
v 4 -3 -0.5
v 5 -2 -0.5
v 5 -2 0.5
v 3 -3 0.5
v 3 -3 -0.5
v 2 -3 0.5
v 2 -3 -0.5
v 6 -4 0.5
v 6 -4 -0.5
v 5 -4 0.5
v 5 -4 -0.5
v 6 -3 -0.5
v 6 -3 0.5
v 4 -4 0.5
v 4 -4 -0.5
v 3 -4 0.5
v 3 -4 -0.5
v 7 -5 0.5
v 7 -5 -0.5
v 6 -5 0.5
v 6 -5 -0.5
v 7 -4 -0.5
v 7 -4 0.5
v 5 -5 0.5
v 5 -5 -0.5
v 4 -5 0.5
v 4 -5 -0.5
v 8 -7 0.5
v 8 -7 -0.5
v 7 -7 0.5
v 7 -7 -0.5
v 8 -5 -0.5
v 8 -5 0.5
v 6 -6 0.5
v 6 -6 -0.5
v 5 -6 0.5
v 5 -6 -0.5
v 6 -7 0.5
v 6 -7 -0.5
v 7 -6 -0.5
v 7 -6 0.5
v -4 6 1
v -4 6 -1
v -4 9 -1
v -4 9 1
v -3 9 -1
v -3 9 1
v -4 8 1
v -4 8 -1
v -7 8 1
v -7 8 -1
v -7 9 -1
v -7 9 1
v -7 4 1
v -7 4 -1
v -8 4 1
v -8 4 -1
v -8 8 -1
v -8 8 1
v -2 5 1
v -2 5 -1
v -3 7 -1
v -3 7 1
v -2 7 -1
v -2 7 1
v -5 3 1
v -5 3 -1
v -6 3 1
v -6 3 -1
v -6 5 -1
v -6 5 1
v -6 4 1
v -6 4 -1
v -7 5 -1
v -7 5 1
v -4 3 1
v -4 3 -1
v -5 8 -1
v -5 8 1
v -7 7 1
v -7 7 -1
v -3 4 1
v -3 4 -1

vn 0 -1 0
vn -1 0 0
vn 0 0 -1
vn 0 0 1
vn 1 0 0
vn 0 1 0

vt 0 0

usemtl color16

f 3/1/1 2/1/1 1/1/1
f 2/1/1 3/1/1 4/1/1
f 3/1/2 5/1/2 4/1/2
f 5/1/2 3/1/2 6/1/2
f 5/1/3 2/1/3 4/1/3
f 2/1/3 5/1/3 7/1/3
f 8/1/4 3/1/4 1/1/4
f 3/1/4 8/1/4 6/1/4
f 8/1/5 2/1/5 7/1/5
f 2/1/5 8/1/5 1/1/5
f 5/1/6 8/1/6 7/1/6
f 8/1/6 5/1/6 6/1/6
f 11/1/1 10/1/1 9/1/1
f 10/1/1 11/1/1 12/1/1
f 11/1/2 13/1/2 12/1/2
f 13/1/2 11/1/2 14/1/2
f 13/1/3 10/1/3 12/1/3
f 10/1/3 13/1/3 15/1/3
f 16/1/4 11/1/4 9/1/4
f 11/1/4 16/1/4 14/1/4
f 16/1/5 10/1/5 15/1/5
f 10/1/5 16/1/5 9/1/5
f 13/1/6 16/1/6 15/1/6
f 16/1/6 13/1/6 14/1/6
f 19/1/1 18/1/1 17/1/1
f 18/1/1 19/1/1 20/1/1
f 19/1/2 21/1/2 20/1/2
f 21/1/2 19/1/2 22/1/2
f 21/1/3 18/1/3 20/1/3
f 18/1/3 21/1/3 23/1/3
f 24/1/4 19/1/4 17/1/4
f 19/1/4 24/1/4 22/1/4
f 24/1/5 18/1/5 23/1/5
f 18/1/5 24/1/5 17/1/5
f 21/1/6 24/1/6 23/1/6
f 24/1/6 21/1/6 22/1/6
f 27/1/1 26/1/1 25/1/1
f 26/1/1 27/1/1 28/1/1
f 27/1/2 18/1/2 28/1/2
f 18/1/2 27/1/2 17/1/2
f 18/1/3 26/1/3 28/1/3
f 26/1/3 18/1/3 29/1/3
f 30/1/4 27/1/4 25/1/4
f 27/1/4 30/1/4 17/1/4
f 30/1/5 26/1/5 29/1/5
f 26/1/5 30/1/5 25/1/5
f 18/1/6 30/1/6 29/1/6
f 30/1/6 18/1/6 17/1/6
f 33/1/1 32/1/1 31/1/1
f 32/1/1 33/1/1 34/1/1
f 33/1/2 35/1/2 34/1/2
f 35/1/2 33/1/2 36/1/2
f 35/1/3 32/1/3 34/1/3
f 32/1/3 35/1/3 37/1/3
f 38/1/4 33/1/4 31/1/4
f 33/1/4 38/1/4 36/1/4
f 38/1/5 32/1/5 37/1/5
f 32/1/5 38/1/5 31/1/5
f 35/1/6 38/1/6 37/1/6
f 38/1/6 35/1/6 36/1/6
f 39/1/1 12/1/1 11/1/1
f 12/1/1 39/1/1 40/1/1
f 39/1/2 41/1/2 40/1/2
f 41/1/2 39/1/2 42/1/2
f 41/1/3 12/1/3 40/1/3
f 12/1/3 41/1/3 43/1/3
f 44/1/4 39/1/4 11/1/4
f 39/1/4 44/1/4 42/1/4
f 44/1/5 12/1/5 43/1/5
f 12/1/5 44/1/5 11/1/5
f 41/1/6 44/1/6 43/1/6
f 44/1/6 41/1/6 42/1/6
f 47/1/1 46/1/1 45/1/1
f 46/1/1 47/1/1 48/1/1
f 47/1/2 28/1/2 48/1/2
f 28/1/2 47/1/2 27/1/2
f 28/1/3 46/1/3 48/1/3
f 46/1/3 28/1/3 49/1/3
f 50/1/4 47/1/4 45/1/4
f 47/1/4 50/1/4 27/1/4
f 50/1/5 46/1/5 49/1/5
f 46/1/5 50/1/5 45/1/5
f 28/1/6 50/1/6 49/1/6
f 50/1/6 28/1/6 27/1/6
f 53/1/1 52/1/1 51/1/1
f 52/1/1 53/1/1 54/1/1
f 53/1/2 55/1/2 54/1/2
f 55/1/2 53/1/2 56/1/2
f 55/1/3 52/1/3 54/1/3
f 52/1/3 55/1/3 40/1/3
f 39/1/4 53/1/4 51/1/4
f 53/1/4 39/1/4 56/1/4
f 39/1/5 52/1/5 40/1/5
f 52/1/5 39/1/5 51/1/5
f 55/1/6 39/1/6 40/1/6
f 39/1/6 55/1/6 56/1/6
f 59/1/1 58/1/1 57/1/1
f 58/1/1 59/1/1 60/1/1
f 59/1/2 61/1/2 60/1/2
f 61/1/2 59/1/2 62/1/2
f 61/1/3 58/1/3 60/1/3
f 58/1/3 61/1/3 63/1/3
f 64/1/4 59/1/4 57/1/4
f 59/1/4 64/1/4 62/1/4
f 64/1/5 58/1/5 63/1/5
f 58/1/5 64/1/5 57/1/5
f 61/1/6 64/1/6 63/1/6
f 64/1/6 61/1/6 62/1/6
f 67/1/1 66/1/1 65/1/1
f 66/1/1 67/1/1 68/1/1
f 67/1/2 69/1/2 68/1/2
f 69/1/2 67/1/2 70/1/2
f 69/1/3 66/1/3 68/1/3
f 66/1/3 69/1/3 61/1/3
f 62/1/4 67/1/4 65/1/4
f 67/1/4 62/1/4 70/1/4
f 62/1/5 66/1/5 61/1/5
f 66/1/5 62/1/5 65/1/5
f 69/1/6 62/1/6 61/1/6
f 62/1/6 69/1/6 70/1/6
f 73/1/1 72/1/1 71/1/1
f 72/1/1 73/1/1 74/1/1
f 73/1/2 75/1/2 74/1/2
f 75/1/2 73/1/2 76/1/2
f 75/1/3 72/1/3 74/1/3
f 72/1/3 75/1/3 77/1/3
f 78/1/4 73/1/4 71/1/4
f 73/1/4 78/1/4 76/1/4
f 78/1/5 72/1/5 77/1/5
f 72/1/5 78/1/5 71/1/5
f 75/1/6 78/1/6 77/1/6
f 78/1/6 75/1/6 76/1/6
f 57/1/1 80/1/1 79/1/1
f 80/1/1 57/1/1 58/1/1
f 57/1/2 81/1/2 58/1/2
f 81/1/2 57/1/2 82/1/2
f 81/1/3 80/1/3 58/1/3
f 80/1/3 81/1/3 83/1/3
f 84/1/4 57/1/4 79/1/4
f 57/1/4 84/1/4 82/1/4
f 84/1/5 80/1/5 83/1/5
f 80/1/5 84/1/5 79/1/5
f 81/1/6 84/1/6 83/1/6
f 84/1/6 81/1/6 82/1/6
f 87/1/1 86/1/1 85/1/1
f 86/1/1 87/1/1 88/1/1
f 87/1/2 89/1/2 88/1/2
f 89/1/2 87/1/2 90/1/2
f 89/1/3 86/1/3 88/1/3
f 86/1/3 89/1/3 34/1/3
f 33/1/4 87/1/4 85/1/4
f 87/1/4 33/1/4 90/1/4
f 33/1/5 86/1/5 34/1/5
f 86/1/5 33/1/5 85/1/5
f 89/1/6 33/1/6 34/1/6
f 33/1/6 89/1/6 90/1/6
f 51/1/1 92/1/1 91/1/1
f 92/1/1 51/1/1 52/1/1
f 51/1/2 93/1/2 52/1/2
f 93/1/2 51/1/2 94/1/2
f 93/1/3 92/1/3 52/1/3
f 92/1/3 93/1/3 89/1/3
f 90/1/4 51/1/4 91/1/4
f 51/1/4 90/1/4 94/1/4
f 90/1/5 92/1/5 89/1/5
f 92/1/5 90/1/5 91/1/5
f 93/1/6 90/1/6 89/1/6
f 90/1/6 93/1/6 94/1/6
f 97/1/1 96/1/1 95/1/1
f 96/1/1 97/1/1 98/1/1
f 97/1/2 72/1/2 98/1/2
f 72/1/2 97/1/2 71/1/2
f 72/1/3 96/1/3 98/1/3
f 96/1/3 72/1/3 99/1/3
f 100/1/4 97/1/4 95/1/4
f 97/1/4 100/1/4 71/1/4
f 100/1/5 96/1/5 99/1/5
f 96/1/5 100/1/5 95/1/5
f 72/1/6 100/1/6 99/1/6
f 100/1/6 72/1/6 71/1/6
f 85/1/1 102/1/1 101/1/1
f 102/1/1 85/1/1 86/1/1
f 85/1/2 103/1/2 86/1/2
f 103/1/2 85/1/2 104/1/2
f 103/1/3 102/1/3 86/1/3
f 102/1/3 103/1/3 74/1/3
f 73/1/4 85/1/4 101/1/4
f 85/1/4 73/1/4 104/1/4
f 73/1/5 102/1/5 74/1/5
f 102/1/5 73/1/5 101/1/5
f 103/1/6 73/1/6 74/1/6
f 73/1/6 103/1/6 104/1/6
f 107/1/1 106/1/1 105/1/1
f 106/1/1 107/1/1 108/1/1
f 107/1/2 96/1/2 108/1/2
f 96/1/2 107/1/2 95/1/2
f 96/1/3 106/1/3 108/1/3
f 106/1/3 96/1/3 109/1/3
f 110/1/4 107/1/4 105/1/4
f 107/1/4 110/1/4 95/1/4
f 110/1/5 106/1/5 109/1/5
f 106/1/5 110/1/5 105/1/5
f 96/1/6 110/1/6 109/1/6
f 110/1/6 96/1/6 95/1/6
f 113/1/1 112/1/1 111/1/1
f 112/1/1 113/1/1 114/1/1
f 113/1/2 102/1/2 114/1/2
f 102/1/2 113/1/2 101/1/2
f 102/1/3 112/1/3 114/1/3
f 112/1/3 102/1/3 98/1/3
f 97/1/4 113/1/4 111/1/4
f 113/1/4 97/1/4 101/1/4
f 97/1/5 112/1/5 98/1/5
f 112/1/5 97/1/5 111/1/5
f 102/1/6 97/1/6 98/1/6
f 97/1/6 102/1/6 101/1/6
f 117/1/1 116/1/1 115/1/1
f 116/1/1 117/1/1 118/1/1
f 117/1/2 106/1/2 118/1/2
f 106/1/2 117/1/2 105/1/2
f 106/1/3 116/1/3 118/1/3
f 116/1/3 106/1/3 119/1/3
f 120/1/4 117/1/4 115/1/4
f 117/1/4 120/1/4 105/1/4
f 120/1/5 116/1/5 119/1/5
f 116/1/5 120/1/5 115/1/5
f 106/1/6 120/1/6 119/1/6
f 120/1/6 106/1/6 105/1/6
f 123/1/1 122/1/1 121/1/1
f 122/1/1 123/1/1 124/1/1
f 123/1/2 112/1/2 124/1/2
f 112/1/2 123/1/2 111/1/2
f 112/1/3 122/1/3 124/1/3
f 122/1/3 112/1/3 108/1/3
f 107/1/4 123/1/4 121/1/4
f 123/1/4 107/1/4 111/1/4
f 107/1/5 122/1/5 108/1/5
f 122/1/5 107/1/5 121/1/5
f 112/1/6 107/1/6 108/1/6
f 107/1/6 112/1/6 111/1/6
f 127/1/1 126/1/1 125/1/1
f 126/1/1 127/1/1 128/1/1
f 127/1/2 116/1/2 128/1/2
f 116/1/2 127/1/2 115/1/2
f 116/1/3 126/1/3 128/1/3
f 126/1/3 116/1/3 129/1/3
f 130/1/4 127/1/4 125/1/4
f 127/1/4 130/1/4 115/1/4
f 130/1/5 126/1/5 129/1/5
f 126/1/5 130/1/5 125/1/5
f 116/1/6 130/1/6 129/1/6
f 130/1/6 116/1/6 115/1/6
f 133/1/1 132/1/1 131/1/1
f 132/1/1 133/1/1 134/1/1
f 133/1/2 122/1/2 134/1/2
f 122/1/2 133/1/2 121/1/2
f 122/1/3 132/1/3 134/1/3
f 132/1/3 122/1/3 118/1/3
f 117/1/4 133/1/4 131/1/4
f 133/1/4 117/1/4 121/1/4
f 117/1/5 132/1/5 118/1/5
f 132/1/5 117/1/5 131/1/5
f 122/1/6 117/1/6 118/1/6
f 117/1/6 122/1/6 121/1/6
f 137/1/1 136/1/1 135/1/1
f 136/1/1 137/1/1 138/1/1
f 137/1/2 126/1/2 138/1/2
f 126/1/2 137/1/2 125/1/2
f 126/1/3 136/1/3 138/1/3
f 136/1/3 126/1/3 139/1/3
f 140/1/4 137/1/4 135/1/4
f 137/1/4 140/1/4 125/1/4
f 140/1/5 136/1/5 139/1/5
f 136/1/5 140/1/5 135/1/5
f 126/1/6 140/1/6 139/1/6
f 140/1/6 126/1/6 125/1/6
f 143/1/1 142/1/1 141/1/1
f 142/1/1 143/1/1 144/1/1
f 143/1/2 132/1/2 144/1/2
f 132/1/2 143/1/2 131/1/2
f 132/1/3 142/1/3 144/1/3
f 142/1/3 132/1/3 128/1/3
f 127/1/4 143/1/4 141/1/4
f 143/1/4 127/1/4 131/1/4
f 127/1/5 142/1/5 128/1/5
f 142/1/5 127/1/5 141/1/5
f 132/1/6 127/1/6 128/1/6
f 127/1/6 132/1/6 131/1/6
f 147/1/1 146/1/1 145/1/1
f 146/1/1 147/1/1 148/1/1
f 147/1/2 136/1/2 148/1/2
f 136/1/2 147/1/2 135/1/2
f 136/1/3 146/1/3 148/1/3
f 146/1/3 136/1/3 149/1/3
f 150/1/4 147/1/4 145/1/4
f 147/1/4 150/1/4 135/1/4
f 150/1/5 146/1/5 149/1/5
f 146/1/5 150/1/5 145/1/5
f 136/1/6 150/1/6 149/1/6
f 150/1/6 136/1/6 135/1/6
f 153/1/1 152/1/1 151/1/1
f 152/1/1 153/1/1 154/1/1
f 153/1/2 142/1/2 154/1/2
f 142/1/2 153/1/2 141/1/2
f 142/1/3 152/1/3 154/1/3
f 152/1/3 142/1/3 138/1/3
f 137/1/4 153/1/4 151/1/4
f 153/1/4 137/1/4 141/1/4
f 137/1/5 152/1/5 138/1/5
f 152/1/5 137/1/5 151/1/5
f 142/1/6 137/1/6 138/1/6
f 137/1/6 142/1/6 141/1/6
f 157/1/1 156/1/1 155/1/1
f 156/1/1 157/1/1 158/1/1
f 157/1/2 146/1/2 158/1/2
f 146/1/2 157/1/2 145/1/2
f 146/1/3 156/1/3 158/1/3
f 156/1/3 146/1/3 159/1/3
f 160/1/4 157/1/4 155/1/4
f 157/1/4 160/1/4 145/1/4
f 160/1/5 156/1/5 159/1/5
f 156/1/5 160/1/5 155/1/5
f 146/1/6 160/1/6 159/1/6
f 160/1/6 146/1/6 145/1/6
f 163/1/1 162/1/1 161/1/1
f 162/1/1 163/1/1 164/1/1
f 163/1/2 152/1/2 164/1/2
f 152/1/2 163/1/2 151/1/2
f 152/1/3 162/1/3 164/1/3
f 162/1/3 152/1/3 148/1/3
f 147/1/4 163/1/4 161/1/4
f 163/1/4 147/1/4 151/1/4
f 147/1/5 162/1/5 148/1/5
f 162/1/5 147/1/5 161/1/5
f 152/1/6 147/1/6 148/1/6
f 147/1/6 152/1/6 151/1/6
f 165/1/1 158/1/1 157/1/1
f 158/1/1 165/1/1 166/1/1
f 165/1/2 162/1/2 166/1/2
f 162/1/2 165/1/2 161/1/2
f 162/1/3 158/1/3 166/1/3
f 158/1/3 162/1/3 167/1/3
f 168/1/4 165/1/4 157/1/4
f 165/1/4 168/1/4 161/1/4
f 168/1/5 158/1/5 167/1/5
f 158/1/5 168/1/5 157/1/5
f 162/1/6 168/1/6 167/1/6
f 168/1/6 162/1/6 161/1/6
f 67/1/1 66/1/1 65/1/1
f 66/1/1 67/1/1 68/1/1
f 67/1/2 69/1/2 68/1/2
f 69/1/2 67/1/2 70/1/2
f 69/1/3 66/1/3 68/1/3
f 66/1/3 69/1/3 61/1/3
f 62/1/4 67/1/4 65/1/4
f 67/1/4 62/1/4 70/1/4
f 62/1/5 66/1/5 61/1/5
f 66/1/5 62/1/5 65/1/5
f 69/1/6 62/1/6 61/1/6
f 62/1/6 69/1/6 70/1/6
f 51/1/1 92/1/1 91/1/1
f 92/1/1 51/1/1 52/1/1
f 51/1/2 93/1/2 52/1/2
f 93/1/2 51/1/2 94/1/2
f 93/1/3 92/1/3 52/1/3
f 92/1/3 93/1/3 89/1/3
f 90/1/4 51/1/4 91/1/4
f 51/1/4 90/1/4 94/1/4
f 90/1/5 92/1/5 89/1/5
f 92/1/5 90/1/5 91/1/5
f 93/1/6 90/1/6 89/1/6
f 90/1/6 93/1/6 94/1/6

usemtl color19

f 169/1/1 29/1/1 30/1/1
f 29/1/1 169/1/1 170/1/1
f 169/1/2 171/1/2 170/1/2
f 171/1/2 169/1/2 172/1/2
f 171/1/3 29/1/3 170/1/3
f 29/1/3 171/1/3 173/1/3
f 174/1/4 169/1/4 30/1/4
f 169/1/4 174/1/4 172/1/4
f 174/1/5 29/1/5 173/1/5
f 29/1/5 174/1/5 30/1/5
f 171/1/6 174/1/6 173/1/6
f 174/1/6 171/1/6 172/1/6
f 177/1/1 176/1/1 175/1/1
f 176/1/1 177/1/1 178/1/1
f 177/1/2 179/1/2 178/1/2
f 179/1/2 177/1/2 180/1/2
f 179/1/3 176/1/3 178/1/3
f 176/1/3 179/1/3 171/1/3
f 172/1/4 177/1/4 175/1/4
f 177/1/4 172/1/4 180/1/4
f 172/1/5 176/1/5 171/1/5
f 176/1/5 172/1/5 175/1/5
f 179/1/6 172/1/6 171/1/6
f 172/1/6 179/1/6 180/1/6
f 183/1/1 182/1/1 181/1/1
f 182/1/1 183/1/1 184/1/1
f 183/1/2 185/1/2 184/1/2
f 185/1/2 183/1/2 186/1/2
f 185/1/3 182/1/3 184/1/3
f 182/1/3 185/1/3 178/1/3
f 177/1/4 183/1/4 181/1/4
f 183/1/4 177/1/4 186/1/4
f 177/1/5 182/1/5 178/1/5
f 182/1/5 177/1/5 181/1/5
f 185/1/6 177/1/6 178/1/6
f 177/1/6 185/1/6 186/1/6
f 25/1/1 188/1/1 187/1/1
f 188/1/1 25/1/1 26/1/1
f 25/1/2 189/1/2 26/1/2
f 189/1/2 25/1/2 190/1/2
f 189/1/3 188/1/3 26/1/3
f 188/1/3 189/1/3 191/1/3
f 192/1/4 25/1/4 187/1/4
f 25/1/4 192/1/4 190/1/4
f 192/1/5 188/1/5 191/1/5
f 188/1/5 192/1/5 187/1/5
f 189/1/6 192/1/6 191/1/6
f 192/1/6 189/1/6 190/1/6
f 195/1/1 194/1/1 193/1/1
f 194/1/1 195/1/1 196/1/1
f 195/1/2 197/1/2 196/1/2
f 197/1/2 195/1/2 198/1/2
f 197/1/3 194/1/3 196/1/3
f 194/1/3 197/1/3 28/1/3
f 27/1/4 195/1/4 193/1/4
f 195/1/4 27/1/4 198/1/4
f 27/1/5 194/1/5 28/1/5
f 194/1/5 27/1/5 193/1/5
f 197/1/6 27/1/6 28/1/6
f 27/1/6 197/1/6 198/1/6
f 181/1/1 200/1/1 199/1/1
f 200/1/1 181/1/1 182/1/1
f 181/1/2 201/1/2 182/1/2
f 201/1/2 181/1/2 202/1/2
f 201/1/3 200/1/3 182/1/3
f 200/1/3 201/1/3 197/1/3
f 198/1/4 181/1/4 199/1/4
f 181/1/4 198/1/4 202/1/4
f 198/1/5 200/1/5 197/1/5
f 200/1/5 198/1/5 199/1/5
f 201/1/6 198/1/6 197/1/6
f 198/1/6 201/1/6 202/1/6
f 193/1/1 204/1/1 203/1/1
f 204/1/1 193/1/1 194/1/1
f 193/1/2 48/1/2 194/1/2
f 48/1/2 193/1/2 47/1/2
f 48/1/3 204/1/3 194/1/3
f 204/1/3 48/1/3 46/1/3
f 45/1/4 193/1/4 203/1/4
f 193/1/4 45/1/4 47/1/4
f 45/1/5 204/1/5 46/1/5
f 204/1/5 45/1/5 203/1/5
f 48/1/6 45/1/6 46/1/6
f 45/1/6 48/1/6 47/1/6
f 177/1/1 176/1/1 175/1/1
f 176/1/1 177/1/1 178/1/1
f 177/1/2 179/1/2 178/1/2
f 179/1/2 177/1/2 180/1/2
f 179/1/3 176/1/3 178/1/3
f 176/1/3 179/1/3 171/1/3
f 172/1/4 177/1/4 175/1/4
f 177/1/4 172/1/4 180/1/4
f 172/1/5 176/1/5 171/1/5
f 176/1/5 172/1/5 175/1/5
f 179/1/6 172/1/6 171/1/6
f 172/1/6 179/1/6 180/1/6
f 181/1/1 200/1/1 199/1/1
f 200/1/1 181/1/1 182/1/1
f 181/1/2 201/1/2 182/1/2
f 201/1/2 181/1/2 202/1/2
f 201/1/3 200/1/3 182/1/3
f 200/1/3 201/1/3 197/1/3
f 198/1/4 181/1/4 199/1/4
f 181/1/4 198/1/4 202/1/4
f 198/1/5 200/1/5 197/1/5
f 200/1/5 198/1/5 199/1/5
f 201/1/6 198/1/6 197/1/6
f 198/1/6 201/1/6 202/1/6

usemtl color20

f 17/1/1 170/1/1 169/1/1
f 170/1/1 17/1/1 18/1/1
f 17/1/2 205/1/2 18/1/2
f 205/1/2 17/1/2 206/1/2
f 205/1/3 170/1/3 18/1/3
f 170/1/3 205/1/3 176/1/3
f 175/1/4 17/1/4 169/1/4
f 17/1/4 175/1/4 206/1/4
f 175/1/5 170/1/5 176/1/5
f 170/1/5 175/1/5 169/1/5
f 205/1/6 175/1/6 176/1/6
f 175/1/6 205/1/6 206/1/6
f 207/1/1 23/1/1 24/1/1
f 23/1/1 207/1/1 208/1/1
f 207/1/2 178/1/2 208/1/2
f 178/1/2 207/1/2 177/1/2
f 178/1/3 23/1/3 208/1/3
f 23/1/3 178/1/3 205/1/3
f 206/1/4 207/1/4 24/1/4
f 207/1/4 206/1/4 177/1/4
f 206/1/5 23/1/5 205/1/5
f 23/1/5 206/1/5 24/1/5
f 178/1/6 206/1/6 205/1/6
f 206/1/6 178/1/6 177/1/6
f 202/1/1 197/1/1 198/1/1
f 197/1/1 202/1/1 201/1/1
f 202/1/2 208/1/2 201/1/2
f 208/1/2 202/1/2 207/1/2
f 208/1/3 197/1/3 201/1/3
f 197/1/3 208/1/3 21/1/3
f 22/1/4 202/1/4 198/1/4
f 202/1/4 22/1/4 207/1/4
f 22/1/5 197/1/5 21/1/5
f 197/1/5 22/1/5 198/1/5
f 208/1/6 22/1/6 21/1/6
f 22/1/6 208/1/6 207/1/6
f 198/1/1 28/1/1 27/1/1
f 28/1/1 198/1/1 197/1/1
f 198/1/2 20/1/2 197/1/2
f 20/1/2 198/1/2 19/1/2
f 20/1/3 28/1/3 197/1/3
f 28/1/3 20/1/3 18/1/3
f 17/1/4 198/1/4 27/1/4
f 198/1/4 17/1/4 19/1/4
f 17/1/5 28/1/5 18/1/5
f 28/1/5 17/1/5 27/1/5
f 20/1/6 17/1/6 18/1/6
f 17/1/6 20/1/6 19/1/6
f 207/1/1 23/1/1 24/1/1
f 23/1/1 207/1/1 208/1/1
f 207/1/2 178/1/2 208/1/2
f 178/1/2 207/1/2 177/1/2
f 178/1/3 23/1/3 208/1/3
f 23/1/3 178/1/3 205/1/3
f 206/1/4 207/1/4 24/1/4
f 207/1/4 206/1/4 177/1/4
f 206/1/5 23/1/5 205/1/5
f 23/1/5 206/1/5 24/1/5
f 178/1/6 206/1/6 205/1/6
f 206/1/6 178/1/6 177/1/6

usemtl color18

f 45/1/1 210/1/1 209/1/1
f 210/1/1 45/1/1 46/1/1
f 45/1/2 49/1/2 46/1/2
f 49/1/2 45/1/2 50/1/2
f 49/1/3 210/1/3 46/1/3
f 210/1/3 49/1/3 26/1/3
f 25/1/4 45/1/4 209/1/4
f 45/1/4 25/1/4 50/1/4
f 25/1/5 210/1/5 26/1/5
f 210/1/5 25/1/5 209/1/5
f 49/1/6 25/1/6 26/1/6
f 25/1/6 49/1/6 50/1/6
f 94/1/1 34/1/1 33/1/1
f 34/1/1 94/1/1 93/1/1
f 94/1/2 40/1/2 93/1/2
f 40/1/2 94/1/2 39/1/2
f 40/1/3 34/1/3 93/1/3
f 34/1/3 40/1/3 10/1/3
f 9/1/4 94/1/4 33/1/4
f 94/1/4 9/1/4 39/1/4
f 9/1/5 34/1/5 10/1/5
f 34/1/5 9/1/5 33/1/5
f 40/1/6 9/1/6 10/1/6
f 9/1/6 40/1/6 39/1/6
f 104/1/1 74/1/1 73/1/1
f 74/1/1 104/1/1 103/1/1
f 104/1/2 34/1/2 103/1/2
f 34/1/2 104/1/2 33/1/2
f 34/1/3 74/1/3 103/1/3
f 74/1/3 34/1/3 32/1/3
f 31/1/4 104/1/4 73/1/4
f 104/1/4 31/1/4 33/1/4
f 31/1/5 74/1/5 32/1/5
f 74/1/5 31/1/5 73/1/5
f 34/1/6 31/1/6 32/1/6
f 31/1/6 34/1/6 33/1/6
f 101/1/1 98/1/1 97/1/1
f 98/1/1 101/1/1 102/1/1
f 101/1/2 74/1/2 102/1/2
f 74/1/2 101/1/2 73/1/2
f 74/1/3 98/1/3 102/1/3
f 98/1/3 74/1/3 72/1/3
f 71/1/4 101/1/4 97/1/4
f 101/1/4 71/1/4 73/1/4
f 71/1/5 98/1/5 72/1/5
f 98/1/5 71/1/5 97/1/5
f 74/1/6 71/1/6 72/1/6
f 71/1/6 74/1/6 73/1/6
f 111/1/1 108/1/1 107/1/1
f 108/1/1 111/1/1 112/1/1
f 111/1/2 98/1/2 112/1/2
f 98/1/2 111/1/2 97/1/2
f 98/1/3 108/1/3 112/1/3
f 108/1/3 98/1/3 96/1/3
f 95/1/4 111/1/4 107/1/4
f 111/1/4 95/1/4 97/1/4
f 95/1/5 108/1/5 96/1/5
f 108/1/5 95/1/5 107/1/5
f 98/1/6 95/1/6 96/1/6
f 95/1/6 98/1/6 97/1/6
f 121/1/1 118/1/1 117/1/1
f 118/1/1 121/1/1 122/1/1
f 121/1/2 108/1/2 122/1/2
f 108/1/2 121/1/2 107/1/2
f 108/1/3 118/1/3 122/1/3
f 118/1/3 108/1/3 106/1/3
f 105/1/4 121/1/4 117/1/4
f 121/1/4 105/1/4 107/1/4
f 105/1/5 118/1/5 106/1/5
f 118/1/5 105/1/5 117/1/5
f 108/1/6 105/1/6 106/1/6
f 105/1/6 108/1/6 107/1/6
f 131/1/1 128/1/1 127/1/1
f 128/1/1 131/1/1 132/1/1
f 131/1/2 118/1/2 132/1/2
f 118/1/2 131/1/2 117/1/2
f 118/1/3 128/1/3 132/1/3
f 128/1/3 118/1/3 116/1/3
f 115/1/4 131/1/4 127/1/4
f 131/1/4 115/1/4 117/1/4
f 115/1/5 128/1/5 116/1/5
f 128/1/5 115/1/5 127/1/5
f 118/1/6 115/1/6 116/1/6
f 115/1/6 118/1/6 117/1/6
f 141/1/1 138/1/1 137/1/1
f 138/1/1 141/1/1 142/1/1
f 141/1/2 128/1/2 142/1/2
f 128/1/2 141/1/2 127/1/2
f 128/1/3 138/1/3 142/1/3
f 138/1/3 128/1/3 126/1/3
f 125/1/4 141/1/4 137/1/4
f 141/1/4 125/1/4 127/1/4
f 125/1/5 138/1/5 126/1/5
f 138/1/5 125/1/5 137/1/5
f 128/1/6 125/1/6 126/1/6
f 125/1/6 128/1/6 127/1/6
f 151/1/1 148/1/1 147/1/1
f 148/1/1 151/1/1 152/1/1
f 151/1/2 138/1/2 152/1/2
f 138/1/2 151/1/2 137/1/2
f 138/1/3 148/1/3 152/1/3
f 148/1/3 138/1/3 136/1/3
f 135/1/4 151/1/4 147/1/4
f 151/1/4 135/1/4 137/1/4
f 135/1/5 148/1/5 136/1/5
f 148/1/5 135/1/5 147/1/5
f 138/1/6 135/1/6 136/1/6
f 135/1/6 138/1/6 137/1/6
f 161/1/1 167/1/1 168/1/1
f 167/1/1 161/1/1 162/1/1
f 161/1/2 148/1/2 162/1/2
f 148/1/2 161/1/2 147/1/2
f 148/1/3 167/1/3 162/1/3
f 167/1/3 148/1/3 146/1/3
f 145/1/4 161/1/4 168/1/4
f 161/1/4 145/1/4 147/1/4
f 145/1/5 167/1/5 146/1/5
f 167/1/5 145/1/5 168/1/5
f 148/1/6 145/1/6 146/1/6
f 145/1/6 148/1/6 147/1/6

