# Created by Kenney (www.kenney.nl)

mtllib nostalig_sword.mtl

v 1 -2 0.5
v 1 -2 -0.5
v 0 -2 0.5
v 0 -2 -0.5
v 0 9 -0.5
v 0 9 0.5
v 1 9 -0.5
v 1 9 0.5
v 2 -2 0.5
v 2 -2 -0.5
v 1 8 -0.5
v 1 8 0.5
v 2 8 -0.5
v 2 8 0.5
v -1 -2 0.5
v -1 -2 -0.5
v -1 9 -0.5
v -1 9 0.5
v 3 -3 1.5
v 3 -3 -1.5
v -3 -3 1.5
v -3 -3 -1.5
v -3 -2 -1.5
v -3 -2 1.5
v 3 -2 -1.5
v 3 -2 1.5
v 2 -7 1
v 2 -7 -1
v -1 -7 1
v -1 -7 -1
v -1 -6 -1
v -1 -6 1
v 2 -6 -1
v 2 -6 1
v 1 -6 0.5
v 1 -6 -0.5
v 0 -6 0.5
v 0 -6 -0.5
v 0 -3 -0.5
v 0 -3 0.5
v 1 -3 -0.5
v 1 -3 0.5

vn 0 -1 0
vn -1 0 0
vn 0 0 -1
vn 0 0 1
vn 1 0 0
vn 0 1 0

vt 0 0

usemtl color19

f 3/1/1 2/1/1 1/1/1
f 2/1/1 3/1/1 4/1/1
f 3/1/2 5/1/2 4/1/2
f 5/1/2 3/1/2 6/1/2
f 5/1/3 2/1/3 4/1/3
f 2/1/3 5/1/3 7/1/3
f 8/1/4 3/1/4 1/1/4
f 3/1/4 8/1/4 6/1/4
f 8/1/5 2/1/5 7/1/5
f 2/1/5 8/1/5 1/1/5
f 5/1/6 8/1/6 7/1/6
f 8/1/6 5/1/6 6/1/6
f 1/1/1 10/1/1 9/1/1
f 10/1/1 1/1/1 2/1/1
f 1/1/2 11/1/2 2/1/2
f 11/1/2 1/1/2 12/1/2
f 11/1/3 10/1/3 2/1/3
f 10/1/3 11/1/3 13/1/3
f 14/1/4 1/1/4 9/1/4
f 1/1/4 14/1/4 12/1/4
f 14/1/5 10/1/5 13/1/5
f 10/1/5 14/1/5 9/1/5
f 11/1/6 14/1/6 13/1/6
f 14/1/6 11/1/6 12/1/6

usemtl color20

f 15/1/1 4/1/1 3/1/1
f 4/1/1 15/1/1 16/1/1
f 15/1/2 17/1/2 16/1/2
f 17/1/2 15/1/2 18/1/2
f 17/1/3 4/1/3 16/1/3
f 4/1/3 17/1/3 5/1/3
f 6/1/4 15/1/4 3/1/4
f 15/1/4 6/1/4 18/1/4
f 6/1/5 4/1/5 5/1/5
f 4/1/5 6/1/5 3/1/5
f 17/1/6 6/1/6 5/1/6
f 6/1/6 17/1/6 18/1/6

usemtl color17

f 21/1/1 20/1/1 19/1/1
f 20/1/1 21/1/1 22/1/1
f 21/1/2 23/1/2 22/1/2
f 23/1/2 21/1/2 24/1/2
f 23/1/3 20/1/3 22/1/3
f 20/1/3 23/1/3 25/1/3
f 26/1/4 21/1/4 19/1/4
f 21/1/4 26/1/4 24/1/4
f 26/1/5 20/1/5 25/1/5
f 20/1/5 26/1/5 19/1/5
f 23/1/6 26/1/6 25/1/6
f 26/1/6 23/1/6 24/1/6
f 29/1/1 28/1/1 27/1/1
f 28/1/1 29/1/1 30/1/1
f 29/1/2 31/1/2 30/1/2
f 31/1/2 29/1/2 32/1/2
f 31/1/3 28/1/3 30/1/3
f 28/1/3 31/1/3 33/1/3
f 34/1/4 29/1/4 27/1/4
f 29/1/4 34/1/4 32/1/4
f 34/1/5 28/1/5 33/1/5
f 28/1/5 34/1/5 27/1/5
f 31/1/6 34/1/6 33/1/6
f 34/1/6 31/1/6 32/1/6

usemtl color18

f 37/1/1 36/1/1 35/1/1
f 36/1/1 37/1/1 38/1/1
f 37/1/2 39/1/2 38/1/2
f 39/1/2 37/1/2 40/1/2
f 39/1/3 36/1/3 38/1/3
f 36/1/3 39/1/3 41/1/3
f 42/1/4 37/1/4 35/1/4
f 37/1/4 42/1/4 40/1/4
f 42/1/5 36/1/5 41/1/5
f 36/1/5 42/1/5 35/1/5
f 39/1/6 42/1/6 41/1/6
f 42/1/6 39/1/6 40/1/6

