# Created by Kenney (www.kenney.nl)

mtllib stairs_model.mtl

v 2 -7 4
v 2 -7 -4
v 0 -7 4
v 0 -7 -4
v 0 1 -4
v 0 1 4
v 2 1 -4
v 2 1 4
v 2 0 4
v 2 0 -4
v 1 0 4
v 1 0 -4
v 1 1 -4
v 1 1 4
v 4 -7 4
v 4 -7 -4
v 2 -1 -4
v 2 -1 4
v 4 -1 -4
v 4 -1 4
v 6 -7 4
v 6 -7 -4
v 4 -3 -4
v 4 -3 4
v 6 -3 -4
v 6 -3 4
v 8 -7 4
v 8 -7 -4
v 6 -5 -4
v 6 -5 4
v 8 -5 -4
v 8 -5 4

vn 0 -1 0
vn -1 0 0
vn 0 0 -1
vn 0 0 1
vn 1 0 0
vn 0 1 0

vt 0.9375 0.1875

usemtl stairs_model

f 3/1/1 2/1/1 1/1/1
f 2/1/1 3/1/1 4/1/1
f 3/1/2 5/1/2 4/1/2
f 5/1/2 3/1/2 6/1/2
f 5/1/3 2/1/3 4/1/3
f 2/1/3 5/1/3 7/1/3
f 8/1/4 3/1/4 1/1/4
f 3/1/4 8/1/4 6/1/4
f 8/1/5 2/1/5 7/1/5
f 2/1/5 8/1/5 1/1/5
f 5/1/6 8/1/6 7/1/6
f 8/1/6 5/1/6 6/1/6
f 11/1/1 10/1/1 9/1/1
f 10/1/1 11/1/1 12/1/1
f 11/1/2 13/1/2 12/1/2
f 13/1/2 11/1/2 14/1/2
f 13/1/3 10/1/3 12/1/3
f 10/1/3 13/1/3 7/1/3
f 8/1/4 11/1/4 9/1/4
f 11/1/4 8/1/4 14/1/4
f 8/1/5 10/1/5 7/1/5
f 10/1/5 8/1/5 9/1/5
f 13/1/6 8/1/6 7/1/6
f 8/1/6 13/1/6 14/1/6
f 1/1/1 16/1/1 15/1/1
f 16/1/1 1/1/1 2/1/1
f 1/1/2 17/1/2 2/1/2
f 17/1/2 1/1/2 18/1/2
f 17/1/3 16/1/3 2/1/3
f 16/1/3 17/1/3 19/1/3
f 20/1/4 1/1/4 15/1/4
f 1/1/4 20/1/4 18/1/4
f 20/1/5 16/1/5 19/1/5
f 16/1/5 20/1/5 15/1/5
f 17/1/6 20/1/6 19/1/6
f 20/1/6 17/1/6 18/1/6
f 15/1/1 22/1/1 21/1/1
f 22/1/1 15/1/1 16/1/1
f 15/1/2 23/1/2 16/1/2
f 23/1/2 15/1/2 24/1/2
f 23/1/3 22/1/3 16/1/3
f 22/1/3 23/1/3 25/1/3
f 26/1/4 15/1/4 21/1/4
f 15/1/4 26/1/4 24/1/4
f 26/1/5 22/1/5 25/1/5
f 22/1/5 26/1/5 21/1/5
f 23/1/6 26/1/6 25/1/6
f 26/1/6 23/1/6 24/1/6
f 21/1/1 28/1/1 27/1/1
f 28/1/1 21/1/1 22/1/1
f 21/1/2 29/1/2 22/1/2
f 29/1/2 21/1/2 30/1/2
f 29/1/3 28/1/3 22/1/3
f 28/1/3 29/1/3 31/1/3
f 32/1/4 21/1/4 27/1/4
f 21/1/4 32/1/4 30/1/4
f 32/1/5 28/1/5 31/1/5
f 28/1/5 32/1/5 27/1/5
f 29/1/6 32/1/6 31/1/6
f 32/1/6 29/1/6 30/1/6

